
<svg width="619px" height="221px" viewBox="0 0 619 221" version="1.1" xmlns="http://www.w3.org/2000/svg" xmlns:xlink="http://www.w3.org/1999/xlink">
    <defs>
        <path d="M467.695226,359.566657 C467.556508,357.735904 467.487148,355.691851 467.487148,353.434499 C467.487148,317.600137 439.911834,288.550647 405.895961,288.550647 C371.880087,288.550647 344.304774,317.600137 344.304774,353.434499 C344.304774,353.679385 344.303957,353.921761 344.302325,354.161626 C344.303954,354.303412 344.304774,354.446036 344.304774,354.589496 C344.304774,370.71769 344.304774,403.854524 344.304774,454 L321,454 C321,404.112155 321,370.975321 321,354.589496 C321,354.207039 321.005643,353.830626 321.016753,353.460254 C321.011169,353.451672 321.005585,353.443087 321,353.434499 C321,304.041189 359.009216,264 405.895961,264 C451.465901,264 488.649958,301.823676 490.702627,349.295707 C490.900876,350.834205 491,352.597215 491,354.584738 C491,372.179518 491,405.317939 491,454 L467.695226,454 L467.695226,359.566657 Z" id="path-1"></path>
        <filter x="-12.1%" y="-9.2%" width="124.1%" height="121.6%" filterUnits="objectBoundingBox" id="filter-2">
            <feMorphology radius="7" operator="dilate" in="SourceAlpha" result="shadowSpreadOuter1"></feMorphology>
            <feOffset dx="0" dy="3" in="shadowSpreadOuter1" result="shadowOffsetOuter1"></feOffset>
            <feGaussianBlur stdDeviation="4" in="shadowOffsetOuter1" result="shadowBlurOuter1"></feGaussianBlur>
            <feComposite in="shadowBlurOuter1" in2="SourceAlpha" operator="out" result="shadowBlurOuter1"></feComposite>
            <feColorMatrix values="0 0 0 0 0   0 0 0 0 0   0 0 0 0 0  0 0 0 0.5 0" type="matrix" in="shadowBlurOuter1"></feColorMatrix>
        </filter>
        <path d="M243.695226,359.566657 C243.556508,357.735904 243.487148,355.691851 243.487148,353.434499 C243.487148,317.600137 215.911834,288.550647 181.895961,288.550647 C147.880087,288.550647 120.304774,317.600137 120.304774,353.434499 C120.304774,353.679385 120.303957,353.921761 120.302325,354.161626 C120.303954,354.303412 120.304774,354.446036 120.304774,354.589496 C120.304774,370.71769 120.304774,403.854524 120.304774,454 L97,454 C97,404.112155 97,370.975321 97,354.589496 C97,354.207039 97.0056428,353.830626 97.0167527,353.460254 C97.0111695,353.451672 97.0055852,353.443087 97,353.434499 C97,304.041189 135.009216,264 181.895961,264 C227.465901,264 264.649958,301.823676 266.702627,349.295707 C266.900876,350.834205 267,352.597215 267,354.584738 C267,372.179518 267,405.317939 267,454 L243.695226,454 L243.695226,359.566657 Z" id="path-3"></path>
        <filter x="-12.1%" y="-9.2%" width="124.1%" height="121.6%" filterUnits="objectBoundingBox" id="filter-4">
            <feMorphology radius="7" operator="dilate" in="SourceAlpha" result="shadowSpreadOuter1"></feMorphology>
            <feOffset dx="0" dy="3" in="shadowSpreadOuter1" result="shadowOffsetOuter1"></feOffset>
            <feGaussianBlur stdDeviation="4" in="shadowOffsetOuter1" result="shadowBlurOuter1"></feGaussianBlur>
            <feComposite in="shadowBlurOuter1" in2="SourceAlpha" operator="out" result="shadowBlurOuter1"></feComposite>
            <feColorMatrix values="0 0 0 0 0   0 0 0 0 0   0 0 0 0 0  0 0 0 0.5 0" type="matrix" in="shadowBlurOuter1"></feColorMatrix>
        </filter>
        <path d="M681.453488,389.88951 C681.29845,387.94721 681.22093,385.778613 681.22093,383.383721 C681.22093,345.36598 650.401462,314.546512 612.383721,314.546512 C574.36598,314.546512 543.546512,345.36598 543.546512,383.383721 L543.546512,431.5 L517.5,431.5 C517.5,403.40058 517.5,384.736196 517.5,375.506851 C517.5,374.159295 517.746785,372.944971 518.192311,371.863275 C523.877388,324.893688 563.880454,288.5 612.383721,288.5 C661.553392,288.5 701.987683,325.90061 706.789957,373.805195 C707.263319,374.857383 707.5,376.168946 707.5,377.739882 C707.5,387.254492 707.5,405.174532 707.5,431.5 L681.453488,431.5 L681.453488,389.88951 Z" id="path-5"></path>
        <filter x="-10.3%" y="-11.5%" width="120.5%" height="127.3%" filterUnits="objectBoundingBox" id="filter-6">
            <feMorphology radius="6" operator="dilate" in="SourceAlpha" result="shadowSpreadOuter1"></feMorphology>
            <feOffset dx="0" dy="3" in="shadowSpreadOuter1" result="shadowOffsetOuter1"></feOffset>
            <feGaussianBlur stdDeviation="4" in="shadowOffsetOuter1" result="shadowBlurOuter1"></feGaussianBlur>
            <feComposite in="shadowBlurOuter1" in2="SourceAlpha" operator="out" result="shadowBlurOuter1"></feComposite>
            <feColorMatrix values="0 0 0 0 0   0 0 0 0 0   0 0 0 0 0  0 0 0 0.5 0" type="matrix" in="shadowBlurOuter1"></feColorMatrix>
        </filter>
    </defs>
    <g id="Page-1" stroke="none" stroke-width="1" fill="none" fill-rule="evenodd">
        <g id="iPad" transform="translate(-82.000000, -251.000000)" fill-rule="nonzero">
            <g id="Combined-Shape">
                <use fill="black" fill-opacity="1" filter="url(#filter-2)" xlink:href="#path-1"></use>
                <use stroke="#FFFFFF" stroke-width="14" fill="#FFFFFF" xlink:href="#path-1"></use>
            </g>
            <g id="Combined-Shape">
                <use fill="black" fill-opacity="1" filter="url(#filter-4)" xlink:href="#path-3"></use>
                <use stroke="#FFFFFF" stroke-width="14" fill="#FFFFFF" xlink:href="#path-3"></use>
            </g>
            <g id="Combined-Shape" transform="translate(612.500000, 360.000000) rotate(-90.000000) translate(-612.500000, -360.000000) ">
                <use fill="black" fill-opacity="1" filter="url(#filter-6)" xlink:href="#path-5"></use>
                <use stroke="#FFFFFF" stroke-width="12" fill="#FFFFFF" xlink:href="#path-5"></use>
            </g>
        </g>
    </g>
</svg>
